<?xml version="1.0" encoding="UTF-8"?>
<svg id="Layer_2" data-name="Layer 2" xmlns="http://www.w3.org/2000/svg" viewBox="0 0 25.43 14.41">
  <defs>
    <style>
      .cls-1 {
        fill: #0038f0;
      }

      .cls-2 {
        fill: #e84cb6;
      }

      .cls-3 {
        fill: #f9f5ef;
      }
    </style>
  </defs>
  <g id="Layer_1-2" data-name="Layer 1">
    <path class="cls-1" d="M12.72,0c2.16,0,3.83,1.72,3.83,3.78v1.8c0,5.06-2.42,7.79-6.87,8.8-.31.09-.57-.13-.57-.44v-2.24c0-.18.13-.35.35-.44,2.2-.53,3.61-1.32,3.61-3.08,0-.44-.35-.79-.79-.79-.26,0-.44,0-.57-.04-1.58-.48-2.82-1.98-2.82-3.56,0-2.07,1.72-3.78,3.83-3.78Z"/>
    <path class="cls-2" d="M.22,13.95v-2.24c0-.18.13-.35.35-.44,2.2-.53,3.61-1.32,3.61-3.08,0-.44-.35-.79-.79-.79-.26,0-.44,0-.57-.04-1.58-.48-2.82-1.98-2.82-3.56C0,1.72,1.72,0,3.83,0s3.83,1.72,3.83,3.78v1.8c0,5.06-2.42,7.79-6.87,8.8-.31.09-.57-.13-.57-.44Z"/>
    <path class="cls-3" d="M17.78,10.58c0-2.11,1.72-3.83,3.83-3.83s3.83,1.72,3.83,3.83-1.72,3.83-3.83,3.83-3.83-1.72-3.83-3.83Z"/>
  </g>
</svg>