<?xml version="1.0" encoding="UTF-8"?>
<svg id="Layer_2" data-name="Layer 2" xmlns="http://www.w3.org/2000/svg" viewBox="0 0 240.29 30.45">
  <defs>
    <style>
      .cls-1 {
        fill: #0038f0;
      }

      .cls-2 {
        fill: #e84cb6;
      }

      .cls-3 {
        fill: #f9f5ef;
      }
    </style>
  </defs>
  <g id="Layer_1-2" data-name="Layer 1">
    <path class="cls-3" d="M13.38,25.17V8.8c0-.84-.62-1.45-1.45-1.45H.53c-.31,0-.53-.22-.53-.53V.84C0,.53.22.31.53.31h18.83c.62,0,1.06.44,1.06,1.06v23.81c0,.31-.22.53-.53.53h-5.98c-.31,0-.53-.22-.53-.53Z"/>
    <path class="cls-1" d="M36.3,0c2.16,0,3.83,1.72,3.83,3.78v1.8c0,5.06-2.42,7.79-6.87,8.8-.31.09-.57-.13-.57-.44v-2.24c0-.18.13-.35.35-.44,2.2-.53,3.61-1.32,3.61-3.08,0-.44-.35-.79-.79-.79-.26,0-.44,0-.57-.04-1.58-.48-2.82-1.98-2.82-3.56,0-2.07,1.72-3.78,3.83-3.78Z"/>
    <path class="cls-3" d="M42.11,24.86l6.78-12.19c.4-.7-.04-1.5-.84-1.5h-3.79c-.31,0-.53-.22-.53-.53V.84c0-.31.22-.53.53-.53h5.99c.31,0,.53.22.53.53v5.9c0,.66.92,1.06,1.32.31l3.34-6.12c.22-.4.57-.62,1.1-.62h10.38c.62,0,1.06.44,1.06,1.06v23.81c0,.31-.22.53-.53.53h-11.79c-.31,0-.53-.22-.53-.53v-5.99c0-.31.22-.53.53-.53h3.87c.84,0,1.41-.57,1.41-1.41v-8.54c0-.88-1.1-1.06-1.5-.35l-9.51,17.07c-.09.18-.26.26-.44.26h-6.95c-.4,0-.66-.44-.44-.84Z"/>
    <path class="cls-3" d="M71.72,25.17v-5.99c0-.31.22-.53.53-.53h6.47c.66,0,1.14-.57.88-1.23l-3.43-9.2c-.22-.53-.75-.88-1.32-.88h-2.6c-.31,0-.53-.22-.53-.53V.84c0-.31.22-.53.53-.53h7.97c.26,0,.57.18.66.44l8.98,24.07c.18.44-.09.88-.57.88h-6.29c-.18,0-.35-.09-.44-.31l-1.45-3.96c-.26-.66-1.14-.66-1.41,0l-1.36,3.74c-.13.31-.22.53-.53.53h-5.54c-.31,0-.53-.22-.53-.53Z"/>
    <path class="cls-3" d="M90.99,25.17v-5.99c0-.31.22-.53.53-.53h15.53c.84,0,1.41-.57,1.41-1.41V7.88c0-.31-.22-.53-.53-.53h-5.85c-.31,0-.53.22-.53.53v5.1c0,.31-.22.53-.53.53h-5.98c-.31,0-.53-.22-.53-.53v-4.18c0-.84-.62-1.45-1.45-1.45h-1.54c-.31,0-.53-.22-.53-.53V.84c0-.31.22-.53.53-.53h22.93c.62,0,1.06.44,1.06,1.06v23.81c0,.31-.22.53-.53.53h-23.46c-.31,0-.53-.22-.53-.53Z"/>
    <path class="cls-3" d="M118.8,22.27c0-2.11,1.72-3.83,3.83-3.83s3.83,1.72,3.83,3.83-1.72,3.83-3.83,3.83-3.83-1.72-3.83-3.83Z"/>
    <path class="cls-3" d="M129.98,29.92V.84c0-.31.22-.53.53-.53h6.07c.31,0,.53.22.53.53v29.09c0,.31-.22.53-.53.53h-6.07c-.31,0-.53-.22-.53-.53Z"/>
    <path class="cls-3" d="M141.5,25.17V.84c0-.31.22-.53.53-.53h6.07c.31,0,.53.22.53.53v24.34c0,.31-.22.53-.53.53h-6.07c-.31,0-.53-.22-.53-.53Z"/>
    <path class="cls-3" d="M163.86,25.17V7.88c0-.31-.22-.53-.53-.53h-10.87c-.31,0-.53-.22-.53-.53V.84c0-.31.22-.53.53-.53h21.74c.31,0,.53.22.53.53v5.98c0,.31-.22.53-.53.53h-2.68c-.31,0-.53.22-.53.53v17.29c0,.31-.22.53-.53.53h-6.07c-.31,0-.53-.22-.53-.53Z"/>
    <path class="cls-3" d="M176.7,25.17v-5.99c0-.31.22-.53.53-.53h6.16c.66,0,1.01-.57.7-1.23l-7.13-16.28c-.18-.44.13-.84.57-.84h6.38c.31,0,.48.22.62.53l7.31,16.85c.53,1.23,1.94,1.1,1.94-.26V.84c0-.31.22-.53.53-.53h5.99c.31,0,.53.22.53.53v23.46c0,.84-.57,1.41-1.41,1.41h-22.18c-.31,0-.53-.22-.53-.53Z"/>
    <path class="cls-3" d="M205,25.17V.84c0-.31.22-.53.53-.53h6.07c.31,0,.53.22.53.53v24.34c0,.31-.22.53-.53.53h-6.07c-.31,0-.53-.22-.53-.53Z"/>
    <path class="cls-3" d="M214.41,24.86l6.78-12.19c.4-.7-.04-1.5-.84-1.5h-3.79c-.31,0-.53-.22-.53-.53V.84c0-.31.22-.53.53-.53h5.99c.31,0,.53.22.53.53v5.9c0,.66.92,1.06,1.32.31l3.34-6.12c.22-.4.57-.62,1.1-.62h10.38c.62,0,1.06.44,1.06,1.06v23.81c0,.31-.22.53-.53.53h-11.79c-.31,0-.53-.22-.53-.53v-5.99c0-.31.22-.53.53-.53h3.87c.84,0,1.41-.57,1.41-1.41v-8.54c0-.88-1.1-1.06-1.5-.35l-9.51,17.07c-.09.18-.26.26-.44.26h-6.95c-.4,0-.66-.44-.44-.84Z"/>
    <path class="cls-2" d="M23.8,13.95v-2.24c0-.18.13-.35.35-.44,2.2-.53,3.61-1.32,3.61-3.08,0-.44-.35-.79-.79-.79-.26,0-.44,0-.57-.04-1.58-.48-2.82-1.98-2.82-3.56,0-2.07,1.72-3.78,3.83-3.78s3.83,1.72,3.83,3.78v1.8c0,5.06-2.42,7.79-6.87,8.8-.31.09-.57-.13-.57-.44Z"/>
  </g>
</svg>